<svg width="96" height="110" viewBox="0 0 96 110" fill="none" xmlns="http://www.w3.org/2000/svg">
<path d="M45.6329 55.0977L45.6329 63.6857L44.6855 71.7967C43.896 76.8859 43.5216 83.8131 38.5273 91.3583C35.685 95.6524 34.0744 104.431 40.8958 107.103M59.3704 55.0977L60.3178 71.7967C60.9495 76.8859 63.2548 87.9231 67.4235 91.3583C69.4762 94.8572 72.1606 104.24 63.1601 107.103M40.8958 100.901C42.7906 101.537 46.1066 101.855 49.4225 106.149C51.8903 109.345 55.1071 108.534 56.5282 106.149C58.8967 103.763 60.7916 100.901 64.5812 100.901" stroke="white" stroke-width="2.97516" stroke-linecap="round"/>
<path d="M51.9914 31.0619L51.9998 31.0767L52.0116 31.0889C52.0194 31.097 52.0262 31.1046 52.0327 31.1121C50.4247 31.6776 48.4587 31.9511 46.3393 31.6889C45.0329 31.5142 44.1544 30.805 43.4904 29.7541C42.822 28.6962 42.3764 27.3 41.9416 25.7669C41.866 25.5004 41.7908 25.23 41.7148 24.9567C41.3555 23.6644 40.9788 22.31 40.466 21.0267C39.876 19.5501 39.1019 18.1568 37.9557 17.0451C39.1919 16.7848 43.7756 15.8922 48.0549 16.583C50.3884 16.9597 52.6143 17.8047 54.1602 19.463C55.702 21.1169 56.5856 23.5996 56.1981 27.2927C56.1357 27.8403 55.8222 28.435 55.2894 29.0125C54.7938 29.5497 54.115 30.0647 53.2941 30.5042C53.2828 30.4387 53.2618 30.3699 53.2233 30.3079C53.0012 29.8778 52.8387 29.2425 52.6723 28.518L52.6721 28.517L52.6712 28.5134C52.4228 27.4662 52.119 26.1858 51.3891 25.0994C50.653 24.0038 49.4887 23.1122 47.5386 22.831L47.5386 22.8309L47.5333 22.8303C47.1371 22.7892 46.7615 23.0389 46.7201 23.4684C46.6817 23.8661 46.9135 24.2589 47.3362 24.3045C48.8289 24.5237 49.683 25.1586 50.2296 25.9816C50.7764 26.8047 51.0221 27.8236 51.2696 28.8499L51.2792 28.89L51.2795 28.8912C51.3006 28.9749 51.3213 29.0585 51.342 29.1418C51.5151 29.8393 51.6842 30.5206 51.9914 31.0619Z" fill="white" stroke="white" stroke-width="0.269559"/>
<path d="M67.4589 46.6821L67.4589 46.6821L67.4597 46.6815C70.7892 44.4124 73.6077 43.8367 75.9668 44.2514C78.3284 44.6665 80.2536 46.0783 81.7857 47.8308C84.5803 51.0276 86.0381 55.325 86.4252 56.6211C83.077 55.0465 79.4532 55.9186 76.2562 56.6879C76.1407 56.7157 76.0257 56.7434 75.9114 56.7708C74.2176 57.1768 72.6584 57.5266 71.3111 57.4588C69.9752 57.3916 68.857 56.9145 68.0288 55.6649C67.6671 55.1026 67.3609 54.5982 67.0849 54.0995C67.1891 54.0639 67.3055 54.0052 67.3891 53.8931C68.7815 52.3159 70.2061 51.6538 71.554 51.4776C72.9076 51.3006 74.1977 51.6118 75.3204 52.0054L75.321 52.0056C75.6953 52.1349 76.1032 51.9189 76.2249 51.5403C76.3461 51.1637 76.1467 50.7419 75.7748 50.6134C74.5697 50.197 73.0504 49.8192 71.4079 50.021C69.7961 50.2191 68.0773 50.9738 66.4266 52.7724C65.7393 51.1729 65.595 49.9356 65.807 48.9687C66.0265 47.9679 66.6322 47.2365 67.4589 46.6821Z" fill="white" stroke="white" stroke-width="0.269559"/>
<path d="M72.6194 61.0196L72.6194 61.0196L72.6203 61.0188C73.8369 59.9249 75.1596 59.7391 76.606 60.0534C78.0633 60.3702 79.6351 61.1924 81.3328 62.11C81.4413 62.1686 81.5502 62.2276 81.6597 62.2869C84.8769 64.0292 88.5191 66.0016 92.5141 65.2475C91.7825 66.4713 89.0846 70.6472 85.2411 73.2586C83.1451 74.6826 80.7192 75.6341 78.0916 75.3998C75.4663 75.1656 72.6154 73.7453 69.672 70.3775L69.6716 70.3771C68.9879 69.6009 68.5482 68.7247 68.5122 67.704C68.4778 66.7299 68.8104 65.6063 69.6814 64.2933C71.8178 68.0707 75.4257 69.3601 78.1836 69.3601H78.1886C78.4172 69.3601 78.6902 69.3601 78.9321 69.3246C79.3362 69.2812 79.6218 68.941 79.5814 68.523C79.542 68.1146 79.2194 67.8087 78.8045 67.8501L78.8042 67.8501C78.2298 67.8852 73.4025 68.1796 70.8211 63.4077C70.7641 63.2911 70.6712 63.1958 70.5559 63.1324C71.0983 62.46 71.7857 61.7557 72.6194 61.0196Z" fill="white" stroke="white" stroke-width="0.269559"/>
<path d="M11.9223 41.7875L11.9222 41.7875L11.9197 41.7916C11.721 42.1212 11.7934 42.5833 12.1265 42.8004C12.2507 42.8857 12.4102 42.9266 12.534 42.9266C12.7749 42.9266 13.0204 42.8033 13.1475 42.587C14.1354 41.0782 15.6421 40.3694 17.1969 40.0895C18.7501 39.8099 20.3407 39.9608 21.4793 40.1653C21.5506 40.1886 21.621 40.1977 21.686 40.2013C21.7609 41.4705 21.525 43.1066 20.8192 45.3012L20.8191 45.3016C20.3603 46.7447 19.4137 47.523 18.1484 47.9673C16.8725 48.4153 15.2809 48.5208 13.5454 48.6115C13.434 48.6173 13.322 48.6231 13.2095 48.6289C9.93058 48.7974 6.21374 48.9885 3.42816 51.4757C3.46118 50.1114 3.72503 45.5763 5.55171 41.712C6.55622 39.5869 8.0277 37.6768 10.1816 36.6016C12.3328 35.5278 15.1859 35.2763 18.977 36.509C20.0457 36.8571 20.9011 37.4979 21.3438 38.6583C20.0459 38.4547 18.3419 38.3412 16.6636 38.6874C14.8839 39.0546 13.1272 39.9406 11.9223 41.7875Z" fill="white" stroke="white" stroke-width="0.269559"/>
<path d="M25.335 17.3868L25.335 17.3868C25.2947 16.969 25.5783 16.6359 25.9378 16.5531L25.9459 16.5513L25.9541 16.5504C26.368 16.5075 26.6869 16.8092 26.7649 17.1732L26.7676 17.1856L26.767 17.1857C27.0449 19.5408 28.1198 20.9192 29.4015 21.7726C30.6907 22.6311 32.1961 22.9632 33.345 23.2048C33.345 23.2048 33.345 23.2049 33.3451 23.2049L33.3173 23.3368C33.4005 23.354 33.4753 23.3712 33.5501 23.3885C33.625 23.4057 33.6998 23.4229 33.7829 23.4402L25.335 17.3868ZM25.335 17.3868L25.3354 17.3897C25.6727 20.239 26.9835 21.9363 28.5236 22.9829C30.0064 23.9906 31.6951 24.3901 32.902 24.649C32.4719 24.9505 31.9806 25.1531 31.467 25.2373C27.9199 25.7929 25.456 25.1045 23.7496 23.7603C22.0394 22.4131 21.0694 20.3914 20.5454 18.2424C19.5905 14.3265 20.1281 10.039 20.3074 8.80748C22.3858 10.9119 25.3447 11.6812 28.0242 12.3778C28.3006 12.4496 28.574 12.5207 28.8431 12.5924C30.3325 12.9891 31.6896 13.4028 32.7322 14.0584C33.7676 14.7094 34.4887 15.5963 34.7141 16.9479L34.7141 16.9481C35.2261 19.999 34.8357 22.0957 34.0484 23.4113L25.335 17.3868Z" fill="white" stroke="white" stroke-width="0.269559"/>
<path d="M50.8552 14.1002V14.0996V14.0983V14.0971V14.0958V14.0946V14.0934V14.0921V14.0909V14.0897V14.0884V14.0872V14.0859V14.0847V14.0835V14.0822V14.081V14.0797V14.0785V14.0773V14.076V14.0748V14.0735V14.0723V14.0711V14.0698V14.0686V14.0673V14.0661V14.0648V14.0636V14.0623V14.0611V14.0599V14.0586V14.0574V14.0561V14.0549V14.0536V14.0524V14.0511V14.0499V14.0486V14.0474V14.0461V14.0449V14.0436V14.0424V14.0411V14.0399V14.0386V14.0374V14.0361V14.0349V14.0336V14.0324V14.0311V14.0299V14.0286V14.0274V14.0261V14.0249V14.0236V14.0223V14.0211V14.0198V14.0186V14.0173V14.0161V14.0148V14.0135V14.0123V14.011V14.0098V14.0085V14.0072V14.006V14.0047V14.0035V14.0022V14.0009V13.9997V13.9984V13.9972V13.9959V13.9946V13.9934V13.9921V13.9908V13.9896V13.9883V13.987V13.9858V13.9845V13.9832V13.982V13.9807V13.9794V13.9782V13.9769V13.9756V13.9743V13.9731V13.9718V13.9705V13.9693V13.968V13.9667V13.9654V13.9642V13.9629V13.9616V13.9603V13.9591V13.9578V13.9565V13.9552V13.954V13.9527V13.9514V13.9501V13.9488V13.9476V13.9463V13.945V13.9437V13.9424V13.9412V13.9399V13.9386V13.9373V13.936V13.9347V13.9334V13.9322V13.9309V13.9296V13.9283V13.927V13.9257V13.9244V13.9232V13.9219V13.9206V13.9193V13.918V13.9167V13.9154V13.9141V13.9128V13.9115V13.9102V13.9089V13.9076V13.9064V13.9051V13.9038V13.9025V13.9012V13.8999V13.8986V13.8973V13.896V13.8947V13.8934V13.8921V13.8908V13.8895V13.8882V13.8869V13.8856V13.8842V13.8829V13.8816V13.8803V13.879V13.8777V13.8764V13.8751V13.8738V13.8725V13.8712V13.8699V13.8686V13.8672V13.8659V13.8646V13.8633V13.862V13.8607V13.8594V13.8581V13.8567V13.8554V13.8541V13.8528V13.8515V13.8501V13.8488V13.8475V13.8462V13.8449V13.8435V13.8422V13.8409V13.8396V13.8383V13.8369V13.8356V13.8343V13.833V13.8316V13.8303V13.829V13.8276V13.8263V13.825V13.8237V13.8223V13.821V13.8197V13.8183V13.817V13.8157V13.8143V13.813V13.8116V13.8103V13.809V13.8076V13.8063V13.805V13.8036V13.8023V13.8009V13.7996V13.7983V13.7969V13.7956V13.7942V13.7929V13.7915V13.7902V13.7888V13.7875V13.7861V13.7848V13.7834V13.7821V13.7807V13.7794V13.778V13.7767V13.7753V13.774V13.7726V13.7713V13.7699V13.7686V13.7672V13.7658V13.7645V13.7631V13.7618V13.7604V13.759V13.7577V13.7563V13.755V13.7536V13.7522V13.7509V13.7495V13.7481V13.7468V13.7454V13.744V13.7427V13.7413V13.7399V13.7385V13.7372V13.7358V13.7344V13.7331V13.7317V13.7303V13.7289V13.7275V13.7262V13.7248V13.7234V13.722V13.7207V13.7193V13.7179V13.7165V13.7151V13.7137V13.7124V13.711V13.7096V13.7082V13.7068V13.7054V13.704V13.7026V13.7012V13.6999V13.6985V13.6971V13.6957V13.6943V13.6929V13.6915V13.6901V13.6887V13.6873V13.6859V13.6845V13.6831V13.6817V13.6803V13.6789V13.6775V13.6761V13.6747V13.6733V13.6719V13.6704V13.669V13.6676V13.6662V13.6648V13.6634V13.662V13.6606L50.8556 13.6292C50.8722 12.4481 50.8933 10.947 50.3478 9.49011C49.7943 8.01183 48.6623 6.58942 46.3864 5.57575C46.0137 5.40455 45.6027 5.5809 45.4421 5.95562C45.2806 6.33208 45.4423 6.75508 45.8088 6.92391L45.8088 6.92392L45.8109 6.92485C47.6592 7.73861 48.5543 8.84136 48.9895 10.0151C49.4237 11.186 49.4056 12.4388 49.389 13.5883L49.3885 13.6242H49.3885V13.6261V13.6279V13.6297V13.6316V13.6334V13.6352V13.637V13.6388V13.6407V13.6425V13.6443V13.6461V13.648V13.6498V13.6516V13.6535V13.6553V13.6571V13.6589V13.6608V13.6626V13.6644V13.6663V13.6681V13.6699V13.6718V13.6736V13.6755V13.6773V13.6791V13.681V13.6828V13.6846V13.6865V13.6883V13.6902V13.692V13.6939V13.6957V13.6975V13.6994V13.7012V13.7031V13.7049V13.7068V13.7086V13.7105V13.7123V13.7142V13.716V13.7179V13.7197V13.7216V13.7234V13.7253V13.7271V13.729V13.7308V13.7327V13.7346V13.7364V13.7383V13.7401V13.742V13.7438V13.7457V13.7476V13.7494V13.7513V13.7531V13.755V13.7569V13.7587V13.7606V13.7625V13.7643V13.7662V13.7681V13.7699V13.7718V13.7736V13.7755V13.7774V13.7792V13.7811V13.783V13.7848V13.7867V13.7886V13.7905V13.7923V13.7942V13.7961V13.7979V13.7998V13.8017V13.8036V13.8054V13.8073V13.8092V13.811V13.8129V13.8148V13.8167V13.8185V13.8204V13.8223V13.8242V13.826V13.8279V13.8298V13.8317V13.8335V13.8354V13.8373V13.8392V13.8411V13.8429V13.8448V13.8467V13.8486V13.8504V13.8523V13.8542V13.8561V13.858V13.8598V13.8617V13.8636V13.8655V13.8674V13.8693V13.8711V13.873V13.8749V13.8768V13.8787V13.8805V13.8824V13.8843V13.8862V13.8881V13.89V13.8918V13.8937V13.8956V13.8975V13.8994V13.9013V13.9031V13.905V13.9069V13.9088V13.9107V13.9126V13.9144V13.9163V13.9182V13.9201V13.922V13.9239V13.9258V13.9276V13.9295V13.9314V13.9333V13.9352V13.9371V13.9389V13.9408V13.9427V13.9446V13.9465V13.9484V13.9503V13.9521V13.954V13.9559V13.9578V13.9597V13.9616V13.9635V13.9653V13.9672V13.9691V13.971V13.9729V13.9748V13.9766V13.9785V13.9804V13.9823V13.9842V13.9861V13.9879V13.9898V13.9917V13.9936V13.9955V13.9974V13.9992V14.0011V14.003V14.0049V14.0068V14.0087V14.0105V14.0124V14.0143V14.0162V14.0181V14.0199V14.0218V14.0237V14.0256V14.0275V14.0294V14.0312V14.0331V14.035V14.0369V14.0388V14.0406V14.0425V14.0444V14.0463V14.0481V14.05V14.0519V14.0538V14.0557V14.0575V14.0594V14.0613V14.0632V14.065V14.0669V14.0688V14.0707V14.0725V14.0744V14.0763V14.0782V14.08V14.0819V14.0838V14.0856V14.0875V14.0894V14.0913V14.0931V14.095V14.0969V14.0987V14.1006V14.1025V14.1043V14.1062V14.1081V14.1099V14.1118V14.1137V14.1155V14.1174V14.1193V14.1211V14.123V14.1249V14.1267V14.1286V14.1305V14.1323V14.1342V14.136V14.1379V14.1398V14.1416V14.1435V14.1453V14.1472V14.1491V14.1509V14.1528V14.1546V14.1565V14.1583V14.1602V14.162V14.1639V14.1658V14.1676V14.1695V14.1713V14.1732V14.175V14.1769V14.1787V14.1806V14.1824V14.1842V14.1861V14.1879V14.1898V14.1916V14.1935V14.1953V14.1972V14.199V14.2008V14.2027V14.2045V14.2064V14.2082V14.21V14.2119V14.2137V14.2156V14.2174V14.2192V14.2211V14.2229V14.2247V14.2266V14.2284V14.2302V14.2321V14.2339V14.2357V14.2375V14.2394V14.2412V14.243V14.2448V14.2467V14.2485V14.2503V14.2521V14.254V14.2558V14.2576V14.2594V14.2612V14.2631V14.2649V14.2667V14.2685V14.2703V14.2721V14.2739V14.2758V14.2776V14.2794V14.2812V14.283V14.2848V14.2866V14.2884V14.2902V14.292V14.2938V14.2956V14.2974V14.2992V14.301V14.3028V14.3046V14.3064V14.3082V14.31V14.3118V14.3136V14.3154V14.3172V14.319V14.3208V14.3226V14.3243V14.3261V14.3279V14.3297V14.3315V14.3333V14.3351V14.3368V14.3386V14.3404V14.3422V14.344V14.3457V14.3475V14.3493V14.3511V14.3528V14.3546V14.3564V14.3581V14.3599V14.3617V14.3634V14.3652V14.367V14.3687V14.3705V14.3723V14.374V14.3758V14.3775V14.3793V14.381V14.3828V14.3845V14.3863V14.388V14.3898V14.3915V14.3933V14.395V14.3968V14.3985V14.4003V14.402V14.4038V14.4055V14.4072V14.409V14.4107V14.4124V14.4142V14.4159V14.4176V14.4194V14.4211V14.4228V14.4246V14.4263V14.428V14.4297V14.4314V14.4332V14.4349V14.4366V14.4383V14.44V14.4417V14.4435V14.4452V14.4469V14.4486V14.4503V14.452V14.4537V14.4554V14.4571V14.4588V14.4605V14.4622V14.4639V14.4656V14.4673V14.469V14.4707V14.4724V14.4741V14.4758V14.4774V14.4791V14.4808V14.4825V14.4842V14.4859V14.4875V14.4892V14.4909V14.4926V14.4942V14.4959V14.4976V14.4993V14.5009V14.5026V14.5042V14.5059V14.5076V14.5092V14.5109V14.5126V14.5142V14.5159V14.5175V14.5192V14.5208V14.5225V14.5241V14.5258V14.5274V14.529V14.5307V14.5323V14.534V14.5356V14.5372V14.5389V14.5405V14.5421V14.5438V14.5454V14.547V14.5486V14.5503V14.5519V14.5535V14.5551V14.5567V14.5875L49.3943 14.5997C48.4704 14.8478 47.3608 14.9717 46.0348 14.939L46.0341 14.939C44.7191 14.9141 43.7667 14.3128 42.988 13.3496C42.2043 12.3802 41.6028 11.0512 40.9974 9.58503C40.8891 9.32251 40.7806 9.0557 40.671 8.78608C40.171 7.55632 39.6474 6.26822 38.9999 5.06384C38.2504 3.66941 37.3299 2.37683 36.0757 1.40251C37.2129 1.03218 41.2319 -0.17653 45.1203 0.210091C47.2469 0.421537 49.3202 1.10886 50.864 2.65764C52.4058 4.2045 53.4373 6.62885 53.4455 10.352C53.4454 11.7285 52.6708 13.182 50.8552 14.1002Z" fill="white" stroke="white" stroke-width="0.269559"/>
<path d="M28.4212 69.2881L28.4211 69.2883C28.2155 69.6293 28.3387 70.0871 28.661 70.2972C28.7779 70.3776 28.9034 70.4233 29.0353 70.4233C29.2771 70.4233 29.5235 70.2992 29.6502 70.0814C30.5885 68.5227 32.2776 67.666 34.004 67.2091C35.6631 66.7699 37.3365 66.7055 38.3574 66.7317C38.4471 67.6635 38.4738 68.7552 38.3786 70.0373L38.3786 70.0375C38.2658 71.5823 37.5087 72.6011 36.3549 73.3746C35.1923 74.1538 33.6348 74.6786 31.9329 75.227C31.8273 75.2611 31.7211 75.2952 31.6144 75.3295C28.3923 76.365 24.7429 77.5378 22.5773 80.7384C22.2799 79.388 21.4386 74.8234 22.3168 70.5093C22.7996 68.1378 23.7995 65.8544 25.6828 64.219C27.5638 62.5855 30.343 61.5836 34.4153 61.8062L34.4174 61.8063C35.276 61.8399 36.0591 62.0826 36.6999 62.6354C37.3143 63.1654 37.8103 63.991 38.1102 65.2235C36.7086 65.2179 34.8687 65.3513 33.1065 65.8988C31.2711 66.469 29.5082 67.4925 28.4212 69.2881Z" fill="white" stroke="white" stroke-width="0.269559"/>
<path d="M63.0146 15.8391L63.0145 15.8389C62.3374 12.1844 62.9021 9.60321 64.1291 7.78233C65.3577 5.9592 67.2642 4.8776 69.3105 4.25179C73.0464 3.10928 77.203 3.49891 78.4018 3.62914C77.3477 4.8353 76.6787 6.28567 76.1964 7.80132C75.7784 9.11475 75.4984 10.4853 75.2312 11.7928C75.1735 12.0753 75.1164 12.3549 75.0586 12.6303C74.732 14.1871 74.3849 15.608 73.794 16.7122C73.2067 17.8095 72.3834 18.5858 71.1003 18.8684C69.7354 19.1645 68.5604 19.2693 67.5727 19.1873V19.1859V19.1843V19.1826V19.181V19.1793V19.1777V19.1761V19.1744V19.1728V19.1711V19.1695V19.1678V19.1662V19.1645V19.1629V19.1612V19.1595V19.1579V19.1562V19.1546V19.1529V19.1513V19.1496V19.1479V19.1463V19.1446V19.143V19.1413V19.1396V19.138V19.1363V19.1346V19.133V19.1313V19.1296V19.128V19.1263V19.1246V19.1229V19.1213V19.1196V19.1179V19.1162V19.1146V19.1129V19.1112V19.1095V19.1079V19.1062V19.1045V19.1028V19.1011V19.0994V19.0978V19.0961V19.0944V19.0927V19.091V19.0893V19.0876V19.086V19.0843V19.0826V19.0809V19.0792V19.0775V19.0758V19.0741V19.0724V19.0707V19.069V19.0673V19.0656V19.0639V19.0622V19.0605V19.0588V19.0571V19.0554V19.0537V19.052V19.0503V19.0486V19.0469V19.0452V19.0435V19.0418V19.04V19.0383V19.0366V19.0349V19.0332V19.0315V19.0298V19.028V19.0263V19.0246V19.0229V19.0212V19.0195V19.0177V19.016V19.0143V19.0126V19.0108V19.0091V19.0074V19.0057V19.0039V19.0022V19.0005V18.9987V18.997V18.9953V18.9936V18.9918V18.9901V18.9884V18.9866V18.9849V18.9831V18.9814V18.9797V18.9779V18.9762V18.9744V18.9727V18.971V18.9692V18.9675V18.9657V18.964V18.9622V18.9605V18.9587V18.957V18.9552V18.9535V18.9517V18.95V18.9482V18.9465V18.9447V18.943V18.9412V18.9395V18.9377V18.936V18.9342V18.9324V18.9307V18.9289V18.9272V18.9254V18.9236V18.9219V18.9201V18.9183V18.9166V18.9148V18.913V18.9113V18.9095V18.9077V18.9059V18.9042V18.9024V18.9006V18.8989V18.8971V18.8953V18.8935V18.8917V18.89V18.8882V18.8864V18.8846V18.8828V18.8811V18.8793V18.8775V18.8757V18.8739V18.8721V18.8704V18.8686V18.8668V18.865V18.8632V18.8614V18.8596V18.8578V18.856V18.8542V18.8524V18.8506V18.8488V18.847V18.8452V18.8434V18.8416V18.8398V18.838V18.8362V18.8344V18.8326V18.8308V18.829V18.8272V18.8254V18.8236V18.8218V18.82V18.8182V18.8164V18.8146V18.8127V18.8109V18.8091V18.8073V18.8055V18.8037V18.8019V18.8V18.7982V18.7964V18.7946V18.7928V18.7909V18.7891V18.7873V18.7855V18.7836V18.7818V18.78V18.7782V18.7763V18.7745V18.7727V18.7708V18.769V18.7672V18.7653V18.7635V18.7617V18.7598V18.758V18.7562V18.7543V18.7525V18.7506V18.7488V18.747V18.7451V18.7433V18.7414V18.7396V18.7378V18.7359V18.7341V18.7322V18.7304V18.7285V18.7267V18.7248V18.723V18.7211V18.7193V18.7174V18.7156V18.7137V18.7118V18.71V18.7081V18.7063V18.7044V18.7025V18.7007V18.6988V18.697V18.6951V18.6932V18.6914V18.6895V18.6876V18.6858V18.6839V18.682V18.6802V18.6783V18.6764V18.6746V18.6727V18.6708V18.6689V18.6671V18.6652V18.6633V18.6614V18.6596V18.6577V18.6558V18.6539V18.652V18.6502V18.6483V18.6464V18.6445V18.6426V18.6407V18.6388V18.637V18.6351V18.6332V18.6313V18.6294V18.6275V18.6256V18.6237V18.6218V18.6199V18.618V18.6161V18.6142V18.6123V18.6104V18.6086V18.6066V18.6047V18.6028V18.6009V18.599V18.5971V18.5952V18.5933V18.5914V18.5895V18.5876V18.5857V18.5838V18.5819V18.58V18.5781V18.5761V18.5742V18.5723V18.5704V18.5685V18.5666V18.5646V18.5627V18.5608V18.5589V18.557V18.555V18.5531V18.5512V18.5493V18.5474V18.5454V18.5435V18.5416V18.5396V18.5377V18.5358V18.5339V18.5319V18.53V18.5281V18.5261V18.5242V18.5223V18.5203V18.5184V18.5165V18.5145V18.5126V18.5106V18.5087V18.5068V18.5048V18.5029V18.5009V18.499V18.497V18.4951V18.4931V18.4912V18.4893V18.4873V18.4854V18.4834V18.4815V18.4795V18.4775V18.4756V18.4736V18.4717V18.4697V18.4678V18.4658V18.4639V18.4619V18.4599V18.458V18.456V18.4541V18.4521V18.4501V18.4482V18.4462V18.4442V18.4423V18.4403V18.4383V18.4364V18.4344V18.4324V18.4304V18.4285V18.4265V18.4245V18.4225V18.4206V18.4186V18.4166V18.4146V18.4127V18.4107V18.4087V18.4067V18.4047V18.4028V18.4008V18.3988V18.3968V18.3948V18.3928V18.3908V18.3888V18.3869V18.3849V18.3829V18.3809V18.3789V18.3769V18.3749V18.3729V18.3709V18.3689V18.3669V18.3649V18.3629V18.3609V18.3589V18.3569V18.3549V18.3529V18.3509V18.3489V18.3469V18.3449V18.3429V18.3409V18.3389V18.3369V18.3349V18.3329V18.3308V18.3288V18.3268V18.3248V18.3228V18.3208V18.3188V18.3167V18.3147V18.3127V18.3107H67.5728L67.5727 18.3067C67.5393 17.1667 67.5165 15.8997 67.9591 14.7128C68.3986 13.5345 69.3021 12.4231 71.1503 11.6094L71.1503 11.6094L71.1524 11.6085C71.5189 11.4397 71.6806 11.0167 71.5192 10.6402C71.3585 10.2656 70.9478 10.0892 70.5751 10.2602C68.3151 11.2569 67.1914 12.6798 66.6423 14.1622C66.1011 15.6234 66.1222 17.133 66.1388 18.3144L66.1392 18.3452V18.3468V18.3484V18.35V18.3516V18.3532V18.3548V18.3565V18.3581V18.3597V18.3613V18.3629V18.3645V18.3662V18.3678V18.3694V18.371V18.3726V18.3742V18.3758V18.3775V18.3791V18.3807V18.3823V18.3839V18.3855V18.3872V18.3888V18.3904V18.392V18.3936V18.3952V18.3968V18.3985V18.4001V18.4017V18.4033V18.4049V18.4065V18.4081V18.4098V18.4114V18.413V18.4146V18.4162V18.4178V18.4194V18.4211V18.4227V18.4243V18.4259V18.4275V18.4291V18.4307V18.4324V18.434V18.4356V18.4372V18.4388V18.4404V18.442V18.4437V18.4453V18.4469V18.4485V18.4501V18.4517V18.4533V18.4549V18.4566V18.4582V18.4598V18.4614V18.463V18.4646V18.4662V18.4678V18.4694V18.4711V18.4727V18.4743V18.4759V18.4775V18.4791V18.4807V18.4823V18.4839V18.4855V18.4872V18.4888V18.4904V18.492V18.4936V18.4952V18.4968V18.4984V18.5V18.5016V18.5032V18.5049V18.5065V18.5081V18.5097V18.5113V18.5129V18.5145V18.5161V18.5177V18.5193V18.5209V18.5225V18.5241V18.5257V18.5274V18.529V18.5306V18.5322V18.5338V18.5354V18.537V18.5386V18.5402V18.5418V18.5434V18.545V18.5466V18.5482V18.5498V18.5514V18.553V18.5546V18.5562V18.5578V18.5594V18.561V18.5626V18.5642V18.5658V18.5674V18.569V18.5706V18.5722V18.5738V18.5754V18.577V18.5786V18.5802V18.5818V18.5834V18.585V18.5866V18.5882V18.5898V18.5914V18.593V18.5946V18.5962V18.5978V18.5994V18.601V18.6026V18.6042V18.6058V18.6074V18.609V18.6106V18.6122V18.6138V18.6154V18.617V18.6186V18.6201V18.6217V18.6233V18.6249V18.6265V18.6281V18.6297V18.6313V18.6329V18.6345V18.6361V18.6377V18.6392V18.6408V18.6424V18.644V18.6456V18.6472V18.6488V18.6504V18.652V18.6535V18.6551V18.6567V18.6583V18.6599V18.6615V18.6631V18.6646V18.6662V18.6678V18.6694V18.671V18.6726V18.6742V18.6757V18.6773V18.6789V18.6805V18.6821V18.6836V18.6852V18.6868V18.6884V18.69V18.6916V18.6931V18.6947V18.6963V18.6979V18.6994V18.701V18.7026V18.7042V18.7058V18.7073V18.7089V18.7105V18.7121V18.7136V18.7152V18.7168V18.7184V18.7199V18.7215V18.7231V18.7246V18.7262V18.7278V18.7294V18.7309V18.7325V18.7341V18.7356V18.7372V18.7388V18.7404V18.7419V18.7435V18.7451V18.7466V18.7482V18.7498V18.7513V18.7529V18.7545V18.756V18.7576V18.7592V18.7607V18.7623V18.7638V18.7654V18.767V18.7685V18.7701V18.7717V18.7732V18.7748V18.7763V18.7779V18.7794V18.781V18.7826V18.7841V18.7857V18.7872V18.7888V18.7903V18.7919V18.7935V18.795V18.7966V18.7981V18.7997V18.8012V18.8028V18.8043V18.8059V18.8074V18.809V18.8105V18.8121V18.8136V18.8152V18.8167V18.8183V18.8198V18.8214V18.8229V18.8245V18.826V18.8276V18.8291V18.8306V18.8322V18.8337V18.8353V18.8368V18.8384V18.8399V18.8414V18.843V18.8445V18.8461V18.8476V18.8491V18.8507V18.8522V18.8538V18.8553V18.8568V18.8584V18.8599V18.8614V18.863V18.8645V18.866V18.8676V18.8691V18.8706V18.8722V18.8737V18.8752V18.8767V18.8783V18.8798V18.8813V18.8829V18.8844V18.8859V18.8874V18.889V18.8905V18.892V18.8935V18.8951V18.8966V18.8981V18.8996V18.9011V18.9027V18.9042V18.9057V18.9072V18.9087V18.9103V18.9118V18.9133V18.9148V18.9163V18.9178V18.9194V18.9209V18.9224V18.9239V18.9254V18.9269V18.9284V18.9299V18.9315V18.933V18.9345V18.936V18.9375V18.939V18.9405V18.942V18.9435V18.945V18.9465V18.948V18.9495V18.951V18.9525V18.954V18.9555V18.957V18.9585V18.96V18.9615V18.9628C64.2356 18.4305 63.2632 17.192 63.0146 15.8391Z" fill="white" stroke="white" stroke-width="0.269559"/>
<path d="M10.6269 58.7755L10.627 58.7755L10.6239 58.7731C10.3033 58.5239 9.84892 58.5608 9.60063 58.9039C9.36412 59.2308 9.3966 59.6929 9.7253 59.9498C11.0521 61.0423 12.6144 61.427 14.166 61.427C16.3203 61.427 18.4337 60.6613 19.8359 60.0389C19.8636 60.0289 19.8893 60.017 19.9132 60.0037C20.0128 61.2083 19.5156 62.1248 18.6992 62.8457L18.6982 62.8466C15.99 65.2856 13.5431 66.1474 11.393 66.0698C9.24052 65.9921 7.361 64.9721 5.79133 63.5992C2.9548 61.1184 1.16257 57.5138 0.645169 56.3801C3.81212 57.3591 6.94216 56.1299 9.70009 55.0469C9.80058 55.0074 9.90058 54.9682 10.0001 54.9292C11.4672 54.3547 12.8184 53.8481 14.0282 53.7413C15.2267 53.6355 16.2763 53.9228 17.157 54.9352L17.1575 54.9358C18.4205 56.3726 19.1879 57.5626 19.5768 58.5897C19.4796 58.5886 19.3821 58.6103 19.2948 58.6549C18.4356 59.0485 16.938 59.6361 15.3169 59.8445C13.6927 60.0533 11.9662 59.8793 10.6269 58.7755Z" fill="white" stroke="white" stroke-width="0.269559"/>
<path d="M30.8089 52.4721L30.8097 52.4714C32.165 51.4011 33.9168 51.252 35.5585 51.4823C37.1984 51.7124 38.7057 52.3182 39.5461 52.7281L39.574 52.7417H39.602C39.5626 52.8808 39.5254 53.0203 39.4878 53.1613C39.4767 53.2032 39.4655 53.2451 39.4542 53.2872C39.392 53.5194 39.3262 53.7581 39.2441 54.0133L39.244 54.0133L39.2434 54.0155C38.8505 55.3118 38.0117 56.0207 36.8801 56.4361C35.7381 56.8554 34.3065 56.9724 32.7414 57.0782C32.6402 57.0851 32.5384 57.0919 32.4362 57.0987C29.4885 57.2955 26.1394 57.5191 23.643 59.7764C23.6533 58.5237 23.8447 54.4774 25.4365 51.0043C26.3185 49.0798 27.6251 47.3432 29.5574 46.3486C31.4871 45.3554 34.0618 45.0916 37.5037 46.1524L37.5038 46.1524C38.3778 46.4208 39.0919 46.8937 39.5279 47.7072C39.9509 48.4964 40.1227 49.6252 39.8968 51.239C38.6885 50.7025 37.0323 50.1057 35.2875 49.9266C33.4618 49.7391 31.5268 50.0079 29.9106 51.2951L29.9105 51.295L29.905 51.2998C29.6249 51.5486 29.5421 52.0048 29.7856 52.3413L29.7854 52.3414L29.7909 52.3482C30.0314 52.639 30.4788 52.7286 30.8089 52.4721L30.8089 52.4721Z" fill="white" stroke="white" stroke-width="0.269559"/>
<path d="M66.9084 31.9748L66.9085 31.9759C67.0401 33.2371 67.1997 37.556 63.1784 40.1683H63.1783H63.1781H63.1779H63.1778H63.1776H63.1774H63.1772H63.177H63.1769H63.1767H63.1765H63.1763H63.1761H63.1759H63.1758H63.1756H63.1754H63.1752H63.175H63.1748H63.1747H63.1745H63.1743H63.1741H63.1739H63.1737H63.1736H63.1734H63.1732H63.173H63.1728H63.1726H63.1724H63.1723H63.1721H63.1719H63.1717H63.1715H63.1713H63.1711H63.1709H63.1708H63.1706H63.1704H63.1702H63.17H63.1698H63.1696H63.1694H63.1693H63.1691H63.1689H63.1687H63.1685H63.1683H63.1681H63.1679H63.1677H63.1676H63.1674H63.1672H63.167H63.1668H63.1666H63.1664H63.1662H63.166H63.1658H63.1656H63.1655H63.1653H63.1651H63.1649H63.1647H63.1645H63.1643H63.1641H63.1639H63.1637H63.1635H63.1633H63.1632H63.163H63.1628H63.1626H63.1624H63.1623C62.6484 40.0856 62.0998 39.7529 61.5761 39.1971C61.0505 38.6391 60.5587 37.8652 60.1624 36.9246C59.37 35.0438 58.9657 32.5104 59.427 29.7438C59.6522 28.4016 60.3767 27.5278 61.4179 26.8911C62.4667 26.2498 63.832 25.852 65.3299 25.4704C65.5878 25.4047 65.8494 25.3395 66.1138 25.2737C68.8191 24.6 71.8117 23.8548 73.9018 21.7396C74.0897 22.9707 74.6864 27.3368 74.0012 31.5352C73.6249 33.8413 72.864 36.0819 71.4496 37.7248C70.0948 39.2987 68.1312 40.3349 65.2967 40.3445C68.6049 37.2856 68.4709 33.1344 68.3071 31.8085C68.266 31.4303 67.9387 31.1303 67.5275 31.1729L67.526 31.1731C67.1503 31.2164 66.8684 31.5605 66.9084 31.9748Z" fill="white" stroke="white" stroke-width="0.269559"/>
<path d="M82.6503 33.9283L82.6504 33.9284L82.6543 33.9251C83.6096 33.1228 84.9189 32.2838 86.5782 32.2419C88.2336 32.2 90.2699 32.9512 92.6807 35.3985C94.8155 37.5776 95.2604 41.1097 94.9372 44.4941C94.6272 47.7404 93.6145 50.8065 92.7655 52.3232C91.6243 50.7193 91.0042 50.0995 89.7519 49.3089C89.29 49.0173 88.7403 48.7012 88.0466 48.3023C87.7777 48.1477 87.4872 47.9806 87.1719 47.7978C86.0408 47.1419 84.5833 46.279 82.6397 45.048C80.2234 43.5146 79.3246 41.8016 79.2562 40.1713C79.1887 38.5602 79.9302 36.9983 80.8929 35.7302C83.0704 36.2299 84.3143 37.2423 85.078 38.4027C85.8508 39.5769 86.1392 40.9121 86.3881 42.0649L86.3932 42.0882L86.3925 42.0883L86.3966 42.101L86.4284 42.1998C86.5087 42.5233 86.7869 42.7804 87.1235 42.7804H87.1237H87.1239H87.1241H87.1243H87.1245H87.1247H87.1249H87.1251H87.1253H87.1255H87.1257H87.1259H87.1261H87.1263H87.1265H87.1267H87.1269H87.1271H87.1273H87.1275H87.1277H87.128H87.1282H87.1284H87.1286H87.1288H87.129H87.1292H87.1294H87.1297H87.1299H87.1301H87.1303H87.1305H87.1308H87.131H87.1312H87.1314H87.1316H87.1319H87.1321H87.1323H87.1325H87.1328H87.133H87.1332H87.1334H87.1337H87.1339H87.1341H87.1344H87.1346H87.1348H87.135H87.1353H87.1355H87.1357H87.136H87.1362H87.1364H87.1367H87.1369H87.1372H87.1374H87.1376H87.1379H87.1381H87.1383H87.1386H87.1388H87.1391H87.1393H87.1396H87.1398H87.14H87.1403H87.1405H87.1408H87.141H87.1413H87.1415H87.1418H87.142H87.1423H87.1425H87.1427H87.143H87.1432H87.1435H87.1438H87.144H87.1443H87.1445H87.1448H87.145H87.1453H87.1455H87.1458H87.146H87.1463H87.1465H87.1468H87.1471H87.1473H87.1476H87.1478H87.1481H87.1484H87.1486H87.1489H87.1491H87.1494H87.1497H87.1499H87.1502H87.1504H87.1507H87.151H87.1512H87.1515H87.1518H87.152H87.1523H87.1526H87.1528H87.1531H87.1534H87.1536H87.1539H87.1542H87.1544H87.1547H87.155H87.1552H87.1555H87.1558H87.1561H87.1563H87.1566H87.1569H87.1571H87.1574H87.1577H87.158H87.1582H87.1585H87.1588H87.1591H87.1593H87.1596H87.1599H87.1602H87.1604H87.1607H87.161H87.1613H87.1615H87.1618H87.1621H87.1624H87.1627H87.1629H87.1632H87.1635H87.1638H87.1641H87.1643H87.1646H87.1649H87.1652H87.1655H87.1657H87.166H87.1663H87.1666H87.1669H87.1672H87.1674H87.1677H87.168H87.1683H87.1686H87.1689H87.1691H87.1694H87.1697H87.17H87.1703H87.1706H87.1709H87.1711H87.1714H87.1717H87.172H87.1723H87.1726H87.1729H87.1731H87.1734H87.1737H87.174H87.1743H87.1746H87.1749H87.1752H87.1755H87.1757H87.176H87.1763H87.1766H87.1769H87.1772H87.1775H87.1778H87.1781H87.1783H87.1786H87.1789H87.1792H87.1795H87.1798H87.1801H87.1804H87.1807H87.181H87.1812H87.1815H87.1818H87.1821H87.1824H87.1827H87.183H87.1833H87.1836H87.1839H87.1842H87.1845H87.1847H87.185H87.1853H87.1856H87.1859H87.1862H87.1865H87.1868H87.1871H87.1874H87.1877H87.188H87.1883H87.1885H87.1888H87.1891H87.1894H87.1897H87.19H87.1903H87.1906H87.1909H87.1912H87.1915H87.1918H87.1921H87.1923H87.1926H87.1929H87.1932H87.1935H87.1938H87.1941H87.1944H87.1947H87.195H87.1953H87.1956H87.1958H87.1961H87.1964H87.1967H87.197H87.1973H87.1976H87.1979H87.1982H87.1985H87.1988H87.1991H87.1993H87.1996H87.1999H87.2002H87.2005H87.2008H87.2011H87.2014H87.2017H87.202H87.2022H87.2025H87.2028H87.2031H87.2034H87.2037H87.204H87.2043H87.2046H87.2048H87.2051H87.2054H87.2057H87.206H87.2063H87.2066H87.2069H87.2071H87.2074H87.2077H87.208H87.2083H87.2086H87.2089H87.2092H87.2094H87.2097H87.21H87.2103H87.2106H87.2109H87.2112H87.2114H87.2117H87.212H87.2123H87.2126H87.2129H87.2131H87.2134H87.2137H87.214H87.2143H87.2145H87.2148H87.2151H87.2154H87.2157H87.216H87.2162H87.2165H87.2168H87.2171H87.2173H87.2176H87.2179H87.2182H87.2185H87.2187H87.219H87.2193H87.2196H87.2198H87.2201H87.2204H87.2207H87.2209H87.2212H87.2215H87.2218H87.222H87.2223H87.2226H87.2229H87.2231H87.2234H87.2237H87.224H87.2242H87.2245H87.2248H87.225H87.2253H87.2256H87.2258H87.2261H87.2264H87.2266H87.2269H87.2272H87.2274H87.2277H87.228H87.2282H87.2285H87.2288H87.229H87.2293H87.2296H87.2298H87.2301H87.2304H87.2306H87.2309H87.2311H87.2314H87.2317H87.2319H87.2322H87.2324H87.2327H87.233H87.2332H87.2335H87.2337H87.234H87.2342H87.2345H87.2347H87.235H87.2353H87.2355H87.2358H87.236H87.2363H87.2365H87.2368H87.237H87.2373H87.2375H87.2378H87.238H87.2383H87.2385H87.2387H87.239H87.2392H87.2395H87.2397H87.24H87.2402H87.2405H87.2407H87.2409H87.2412H87.2414H87.2417H87.2419H87.2421H87.2424H87.2426H87.2429H87.2431H87.2433H87.2436H87.2438H87.244H87.2443H87.2445H87.2447H87.245H87.2452H87.2454H87.2457H87.2459H87.2461H87.2463H87.2466H87.2468H87.247H87.2473H87.2475H87.2477H87.2479H87.2481H87.2484H87.2486H87.2488H87.249H87.2493H87.2495H87.2497H87.2499H87.2501H87.2503H87.2506H87.2508H87.251H87.2512H87.2514H87.2516H87.2518H87.2521H87.2523H87.2525H87.2527H87.2529H87.2531H87.2533H87.2535H87.2537H87.2539H87.2541H87.2543H87.2545H87.2547H87.2549H87.2551H87.2553H87.2555H87.2557H87.2559H87.2561H87.2563H87.2565H87.2718L87.2868 42.777C87.6657 42.6897 87.9008 42.2676 87.8206 41.8936L87.8213 41.8934L87.8171 41.8806L87.7861 41.784C87.5538 40.6661 87.2421 39.1739 86.3945 37.7928C85.5681 36.4461 84.2361 35.2106 81.99 34.5152C82.2095 34.2984 82.4411 34.0909 82.6503 33.9283Z" fill="white" stroke="white" stroke-width="0.269559"/>
<path d="M81.7971 27.4814L81.797 27.4814L81.7931 27.485C81.69 27.5784 81.5925 27.661 81.4981 27.7409C81.4726 27.7625 81.4473 27.7839 81.4221 27.8053C81.3292 27.8844 81.2392 27.9628 81.1536 28.0461C80.0375 26.8634 78.9904 25.2935 78.2857 23.3679C77.8192 22.0924 78.0138 20.9585 78.5996 19.8624C79.1893 18.7591 80.1722 17.7001 81.2769 16.5854C81.4648 16.3957 81.6562 16.2045 81.8496 16.0114C83.8553 14.008 86.075 11.7911 86.8382 8.85704C87.6454 9.87509 90.5275 13.6488 91.9316 17.8857C92.7004 20.2055 93.0206 22.6481 92.33 24.8479C91.6416 27.0407 89.9414 29.015 86.6209 30.39C86.1115 30.5977 85.423 30.5873 84.6381 30.3428C83.8934 30.1108 83.0734 29.6715 82.2604 29.0287L82.4373 28.8759L82.7354 28.6184C82.7356 28.6182 82.7358 28.6181 82.736 28.6179C83.6323 27.861 84.7662 26.8979 85.4907 25.5102C86.2188 24.1155 86.528 22.3042 85.804 19.8606C85.6847 19.4492 85.2787 19.2276 84.901 19.3568C84.4975 19.4834 84.2942 19.9036 84.4152 20.2828C85.0045 22.2862 84.7721 23.7227 84.1917 24.8339C83.6073 25.9529 82.6639 26.7558 81.7971 27.4814Z" fill="white" stroke="white" stroke-width="0.269559"/>
<path d="M38.2503 40.4824C38.4496 41.0675 38.6522 41.6287 38.9242 42.1224C37.5531 43.0097 35.6501 43.7649 33.3353 44.1314L33.3351 44.1314C32.0349 44.3394 31.0246 43.9328 30.1399 43.1516C29.2481 42.364 28.4885 41.1997 27.702 39.8992C27.5673 39.6765 27.4319 39.4498 27.295 39.2207C25.8851 36.8611 24.3149 34.2329 21.7112 32.8538C22.8115 32.2834 26.8268 30.3162 30.974 29.9482C33.2396 29.7471 35.5288 30.0249 37.403 31.2526C39.2733 32.4778 40.752 34.6634 41.3709 38.3241L41.3708 38.3241L38.3778 40.4386M38.2503 40.4824C38.2503 40.4823 38.2503 40.4822 38.2502 40.4821L38.3778 40.4386M38.2503 40.4824C38.2504 40.4826 38.2505 40.4828 38.2506 40.4831L38.3778 40.4386M38.2503 40.4824C37.9003 39.4804 37.5413 38.4958 36.8698 37.6991C36.2037 36.909 35.2213 36.2944 33.6055 36.0571M38.3778 40.4386C37.6795 38.4395 36.9146 36.4059 33.6224 35.9233M33.6055 36.0571C33.6065 36.0572 33.6075 36.0573 33.6085 36.0574L33.6224 35.9233M33.6055 36.0571C33.1829 36.0115 32.9511 35.6187 32.9894 35.221C33.0309 34.7915 33.4064 34.5418 33.8026 34.5829L33.8083 34.5835L33.8083 34.5836C35.8356 34.8813 37.1047 35.7248 37.9579 36.7551C38.7903 37.7603 39.2208 38.937 39.5811 39.9221C39.5879 39.9407 39.5947 39.9592 39.6014 39.9776M33.6055 36.0571C33.6046 36.057 33.6038 36.0568 33.6029 36.0567L33.6224 35.9233M33.6224 35.9233L39.6014 39.9776M39.6014 39.9776C39.6015 39.978 39.6017 39.9783 39.6018 39.9787L39.4752 40.025L39.601 39.9765C39.6011 39.9768 39.6013 39.9772 39.6014 39.9776ZM39.981 41.3107C40.0006 41.3539 40.0204 41.3964 40.0405 41.4382C40.0759 41.4069 40.1107 41.3755 40.1449 41.344C40.1249 41.3017 40.1052 41.2588 40.0858 41.2151C40.0515 41.2471 40.0166 41.2789 39.981 41.3107Z" fill="white" stroke="white" stroke-width="0.269559"/>
</svg>
